<?xml version="1.0" standalone="no"?><!DOCTYPE svg PUBLIC "-//W3C//DTD SVG 1.1//EN" "http://www.w3.org/Graphics/SVG/1.1/DTD/svg11.dtd"><svg t="1636284202921" class="icon" viewBox="0 0 1024 1024" version="1.1" xmlns="http://www.w3.org/2000/svg" p-id="2506" xmlns:xlink="http://www.w3.org/1999/xlink" width="200" height="200"><defs><style type="text/css"></style></defs><path d="M284.132 431.45a60 60 0 0 0-4.132 21.88V762c0 33.138 26.862 60 60 60h320c33.138 0 60-26.862 60-60v-160l21.362-85.448a60 60 0 0 0 1.792-14.552c0-33.138-26.864-60-60-60H416.64l60.982-181.584a44.308 44.308 0 0 0 2.306-14.108c0-24.47-19.838-44.308-44.308-44.308h-20.684a60 60 0 0 0-55.868 38.12l-74.938 191.33zM541.806 352h141.348c82.842 0 150 67.158 150 150a150 150 0 0 1-4.48 36.38L810 613.08V762c0 82.842-67.158 150-150 150H340c-82.842 0-150-67.158-150-150V453.33a150 150 0 0 1 10.33-54.702l74.94-191.332C297.78 149.816 353.206 112 414.936 112h20.684c74.176 0 134.308 60.132 134.308 134.308 0 14.538-2.36 28.98-6.988 42.76L541.806 352z" p-id="2507"></path></svg>