<?xml version="1.0" standalone="no"?><!DOCTYPE svg PUBLIC "-//W3C//DTD SVG 1.1//EN" "http://www.w3.org/Graphics/SVG/1.1/DTD/svg11.dtd"><svg t="1636285494076" class="icon" viewBox="0 0 1024 1024" version="1.1" xmlns="http://www.w3.org/2000/svg" p-id="8403" xmlns:xlink="http://www.w3.org/1999/xlink" width="200" height="200"><defs><style type="text/css"></style></defs><path d="M341.333333 256h85.333334v85.333333H341.333333V256z m256 0h85.333334v85.333333h-85.333334V256z m128 0h85.333334v85.333333h-85.333334V256zM213.333333 384h85.333334v85.333333H213.333333V384z m128 0h85.333334v85.333333H341.333333V384z m256 0h85.333334v85.333333h-85.333334V384z m128 0h85.333334v85.333333h-85.333334V384z m-256-128h85.333334v85.333333h-85.333334V256z m0 128h85.333334v85.333333h-85.333334V384z m-256 128h85.333334v85.333333H213.333333v-85.333333z m128 0h85.333334v85.333333H341.333333v-85.333333z m256 0h85.333334v85.333333h-85.333334v-85.333333z m128 0h85.333334v85.333333h-85.333334v-85.333333z m-256 0h85.333334v85.333333h-85.333334v-85.333333z m-256 128h85.333334v85.333333H213.333333v-85.333333z m128 0h85.333334v85.333333H341.333333v-85.333333z m128 0h85.333334v85.333333h-85.333334v-85.333333z" fill="#525A65" p-id="8404"></path></svg>